<?xml version="1.0" standalone="no"?>
<!DOCTYPE svg PUBLIC "-//W3C//DTD SVG 20010904//EN"
 "http://www.w3.org/TR/2001/REC-SVG-20010904/DTD/svg10.dtd">
<svg version="1.0" xmlns="http://www.w3.org/2000/svg"
 width="662.000000pt" height="651.000000pt" viewBox="0 0 662.000000 651.000000"
 preserveAspectRatio="xMidYMid meet">

<g transform="translate(0.000000,651.000000) scale(0.100000,-0.100000)"
fill="#000000" stroke="none">
<path d="M1270 6070 c-176 -14 -309 -59 -397 -135 -95 -81 -161 -225 -182
-400 -6 -52 -11 -262 -11 -492 0 -352 2 -403 15 -403 13 0 15 49 15 378 0 497
11 601 76 738 64 136 162 214 320 254 105 27 327 40 687 40 l297 0 0 -349 0
-349 -167 -4 c-223 -7 -271 -25 -317 -121 -34 -71 -45 -149 -53 -374 -5 -168
-4 -193 9 -193 12 0 16 31 21 188 8 218 19 299 51 362 43 87 116 110 349 110
l137 0 0 380 0 380 -377 -1 c-208 -1 -421 -5 -473 -9z"/>
<path d="M4993 5912 c-194 -91 -353 -169 -353 -173 0 -4 27 -38 59 -77 175
-209 363 -525 476 -799 23 -56 44 -93 52 -93 18 0 14 12 -44 149 -114 268
-265 524 -435 737 -32 40 -54 75 -49 78 10 7 577 274 618 292 l32 14 81 -98
c231 -276 445 -641 585 -999 33 -84 65 -151 70 -149 17 5 7 41 -46 174 -159
399 -379 766 -628 1050 -30 34 -57 62 -60 61 -3 0 -165 -75 -358 -167z"/>
<path d="M6082 4768 c3 -7 12 -14 21 -16 12 -2 15 1 11 12 -7 19 -38 22 -32 4z"/>
<path d="M5222 4748 c3 -7 12 -14 21 -16 12 -2 15 1 11 12 -7 19 -38 22 -32 4z"/>
<path d="M1550 4635 c0 -8 7 -15 15 -15 8 0 15 7 15 15 0 8 -7 15 -15 15 -8 0
-15 -7 -15 -15z"/>
<path d="M680 4610 c0 -5 7 -10 15 -10 8 0 15 5 15 10 0 6 -7 10 -15 10 -8 0
-15 -4 -15 -10z"/>
</g>
</svg>
